#!OML:ASF H:\MichaelJackson\Top Level 1\Subject 1\Session 1\male.ASF
:FULLY-SPECIFIED
:DEGREES
930
root 2.56135 16.6039 23.4437 -174.625 155.863 172.886
lowerback 0.109064 3.84442 4.40816
upperback -1.86442 5.20443 0.939429
thorax -1.67565 2.5452 -1.55976
lowerneck -5.75876 -7.89411 1.10923
upperneck -3.24532 -10.5241 3.49917
head 0.0744975 -5.24681 0.694339
rclavicle -7.73894e-014 -8.74653e-015
rhumerus -37.263 33.5038 -100.683
rradius 71.7956
rwrist 5.57103
rhand -13.0368 -19.9213
rfingers 7.12502
rthumb 13.0577 310.507
lclavicle -7.73894e-014 -8.74653e-015
lhumerus -54.358 -9.63151 89.008
lradius 61.1036
lwrist 20.2324
lhand -6.00517 6.81728
lfingers 7.12502
lthumb 19.8274 35.8259
rfemur 0.946855 -9.75072 21.8044
rtibia 23.4862
rfoot -21.6125 -14.9292
rtoes -22.5207
lfemur -43.5571 -4.64197 -8.10458
ltibia 34.5185
lfoot -2.09827 -15.7846
ltoes 10.6453
931
root 2.62612 16.579 23.5867 -175.075 156.088 172.914
lowerback 0.0811969 3.87445 4.18258
upperback -1.82887 5.23989 0.994281
thorax -1.64589 2.56781 -1.37662
lowerneck -5.6734 -7.94937 1.17818
upperneck -2.8511 -10.6149 3.45483
head 0.176473 -5.28807 0.662085
rclavicle -4.79692e-014 -2.80286e-014
rhumerus -37.4312 32.513 -99.6698
rradius 70.6696
rwrist 5.98712
rhand -13.0877 -19.7076
rfingers 7.12502
rthumb 13.0087 310.718
lclavicle -4.79692e-014 -2.80286e-014
lhumerus -54.7826 -9.49319 88.8584
lradius 61.4163
lwrist 20.7214
lhand -6.01738 6.74511
lfingers 7.12502
lthumb 19.8157 35.755
rfemur 1.14858 -10.9889 21.2423
rtibia 25.1499
rfoot -21.6886 -13.9526
rtoes -24.8356
lfemur -43.1587 -6.12589 -7.56675
ltibia 33.9111
lfoot -1.0989 -15.4395
ltoes 9.9587
932
root 2.69401 16.5539 23.7301 -175.593 156.29 172.942
lowerback 0.0858372 3.88733 3.9546
upperback -1.78019 5.25382 1.04939
thorax -1.6225 2.57954 -1.19379
lowerneck -5.55744 -7.99833 1.26108
upperneck -2.46355 -10.6969 3.41927
head 0.271228 -5.32521 0.63202
rclavicle -7.20222e-014 -2.78299e-015
rhumerus -37.6406 31.4531 -98.6393
rradius 69.5375
rwrist 6.44052
rhand -13.252 -19.5304
rfingers 7.12502
rthumb 12.8503 310.885
lclavicle -7.20222e-014 -2.78299e-015
lhumerus -55.208 -9.36772 88.7195
lradius 61.7201
lwrist 21.0078
lhand -6.00593 6.64642
lfingers 7.12502
lthumb 19.8267 35.6552
rfemur 1.11016 -12.1874 20.5957
rtibia 27.4377
rfoot -21.6451 -12.9722
rtoes -27.4462
lfemur -42.6615 -7.52859 -7.11791
ltibia 33.6131
lfoot -0.539751 -15.0621
ltoes 8.87639
933
root 2.76454 16.5294 23.8724 -176.155 156.472 172.971
lowerback 0.117736 3.88706 3.73094
upperback -1.72433 5.25136 1.10074
thorax -1.60718 2.58273 -1.01887
lowerneck -5.41866 -8.04493 1.35862
upperneck -2.08379 -10.7757 3.39677
head 0.359902 -5.36073 0.6049
rclavicle 9.06458e-014 3.12092e-014
rhumerus -37.8824 30.3141 -97.5848
rradius 68.3979
rwrist 6.92674
rhand -13.5588 -19.3873
rfingers 7.12502
rthumb 12.5545 311.01
lclavicle 9.06458e-014 3.12092e-014
lhumerus -55.61 -9.26342 88.5926
lradius 61.9875
lwrist 21.1115
lhand -5.96432 6.51247
lfingers 7.12502
lthumb 19.8667 35.5171
rfemur 0.769238 -13.3216 19.8644
rtibia 30.3701
rfoot -21.3579 -11.9418
rtoes -30.2366
lfemur -42.0875 -8.77054 -6.80804
ltibia 33.6633
lfoot -0.500799 -14.6509
ltoes 7.57514
934
root 2.83702 16.5056 24.0127 -176.757 156.614 173.009
lowerback 0.188048 3.86687 3.50336
upperback -1.65674 5.22364 1.15109
thorax -1.60257 2.57309 -0.845053
lowerneck -5.27601 -8.0895 1.45778
upperneck -1.7073 -10.8515 3.39208
head 0.447989 -5.39432 0.583139
rclavicle -6.28657e-015 7.7526e-015
rhumerus -38.1455 29.1077 -96.4889
rradius 67.2525
rwrist 7.43701
rhand -14.0418 -19.2799
rfingers 7.12502
rthumb 12.0888 311.089
lclavicle -6.28657e-015 7.7526e-015
lhumerus -55.961 -9.18192 88.4878
lradius 62.2
lwrist 21.0892
lhand -5.91507 6.35908
lfingers 7.12502
lthumb 19.914 35.3588
rfemur 0.101995 -14.3712 19.0472
rtibia 33.9259
rfoot -20.6572 -10.8076
rtoes -32.993
lfemur -41.4562 -9.78803 -6.69381
ltibia 34.0669
lfoot -0.974215 -14.2362
ltoes 6.30177
935
root 2.9098 16.4824 24.1491 -177.382 156.728 173.06
lowerback 0.314097 3.8323 3.26548
upperback -1.58023 5.17858 1.19899
thorax -1.62109 2.55445 -0.671652
lowerneck -5.15335 -8.13334 1.55008
upperneck -1.32413 -10.9266 3.40687
head 0.543142 -5.42662 0.567128
rclavicle 2.58793e-014 -1.35174e-014
rhumerus -38.4266 27.8413 -95.3473
rradius 66.1092
rwrist 7.97455
rhand -14.7556 -19.2418
rfingers 7.12502
rthumb 11.4005 311.088
lclavicle 2.58793e-014 -1.35174e-014
lhumerus -56.2337 -9.12522 88.4074
lradius 62.3411
lwrist 21.0005
lhand -5.85636 6.17112
lfingers 7.12502
lthumb 19.9704 35.1649
rfemur -0.930494 -15.2757 18.1662
rtibia 38.0557
rfoot -19.355 -9.49745
rtoes -35.4386
lfemur -40.7776 -10.5382 -6.77971
ltibia 34.7803
lfoot -1.87775 -13.8293
ltoes 5.12064
936
root 2.98176 16.4593 24.281 -178.014 156.793 173.148
lowerback 0.495742 3.78033 2.99621
upperback -1.49121 5.11117 1.23628
thorax -1.65988 2.52465 -0.494915
lowerneck -5.07651 -8.1793 1.62783
upperneck -0.921691 -11.006 3.44061
head 0.654136 -5.45944 0.556246
rclavicle -6.83198e-014 -2.38542e-015
rhumerus -38.7251 26.5057 -94.1548
rradius 64.9846
rwrist 8.54681
rhand -15.7013 -19.284
rfingers 7.12502
rthumb 10.4883 310.998
lclavicle -6.83198e-014 -2.38542e-015
lhumerus -56.4194 -9.12178 88.3543
lradius 62.4236
lwrist 20.9276
lhand -5.80109 5.97643
lfingers 7.12502
lthumb 20.0236 34.9647
rfemur -2.33377 -16.0164 17.2235
rtibia 42.6718
rfoot -17.2902 -7.89117
rtoes -37.2293
lfemur -40.0667 -11.0457 -7.06541
ltibia 35.7232
lfoot -3.07253 -13.4483
ltoes 4.17882
937
root 3.05119 16.4362 24.4075 -178.624 156.838 173.292
lowerback 0.727437 3.72096 2.67648
upperback -1.38844 5.03344 1.25778
thorax -1.71508 2.49002 -0.30896
lowerneck -5.06781 -8.22415 1.6904
upperneck -0.494875 -11.0863 3.48482
head 0.786052 -5.49085 0.546939
rclavicle 1.36043e-014 1.2921e-014
rhumerus -39.0377 25.1218 -92.9118
rradius 63.9005
rwrist 9.15258
rhand -16.8868 -19.4458
rfingers 7.12502
rthumb 9.34454 310.781
lclavicle 1.36043e-014 1.2921e-014
lhumerus -56.5026 -9.17365 88.3278
lradius 62.4555
lwrist 20.922
lhand -5.76686 5.79671
lfingers 7.12502
lthumb 20.0565 34.7815
rfemur -4.13363 -16.5307 16.2415
rtibia 47.6618
rfoot -14.2966 -5.87419
rtoes -38.0499
lfemur -39.3506 -11.3176 -7.52239
ltibia 36.7949
lfoot -4.336 -13.1349
ltoes 3.86111
938
root 3.11647 16.4142 24.528 -179.205 156.883 173.501
lowerback 1.02059 3.66105 2.29634
upperback -1.26849 4.95377 1.25924
thorax -1.7896 2.45482 -0.113141
lowerneck -5.13127 -8.26504 1.73605
upperneck -0.0530343 -11.1638 3.53217
head 0.936642 -5.51909 0.53739
rclavicle 9.87276e-014 4.96962e-015
rhumerus -39.3639 23.7005 -91.6268
rradius 62.8803
rwrist 9.7905
rhand -18.2897 -19.7644
rfingers 7.12502
rthumb 7.99073 310.407
lclavicle 9.87276e-014 4.96962e-015
lhumerus -56.4934 -9.29121 88.3229
lradius 62.4698
lwrist 21.0158
lhand -5.74246 5.65316
lfingers 7.12502
lthumb 20.0799 34.6355
rfemur -6.31245 -16.7787 15.2423
rtibia 52.8857
rfoot -10.2558 -3.39001
rtoes -37.6312
lfemur -38.6259 -11.3902 -8.11206
ltibia 37.8886
lfoot -5.53091 -12.9258
ltoes 3.70733
939
root 3.17646 16.3938 24.6426 -179.745 156.94 173.792
lowerback 1.37245 3.60261 1.84171
upperback -1.13104 4.87306 1.23473
thorax -1.88207 2.41968 0.094729
lowerneck -5.25297 -8.29719 1.76855
upperneck 0.38514 -11.231 3.57094
head 1.09701 -5.54125 0.524809
rclavicle -5.41067e-015 2.78299e-015
rhumerus -39.7081 22.2806 -90.3208
rradius 61.9453
rwrist 10.4681
rhand -19.8833 -20.2863
rfingers 7.12502
rthumb 6.45251 309.832
lclavicle -5.41067e-015 2.78299e-015
lhumerus -56.4117 -9.47469 88.3281
lradius 62.498
lwrist 21.2145
lhand -5.71742 5.55794
lfingers 7.12502
lthumb 20.104 34.5378
rfemur -8.83608 -16.7459 14.2326
rtibia 58.196
rfoot -5.11039 -0.44606
rtoes -35.6509
lfemur -37.8831 -11.2926 -8.81322
ltibia 38.911
lfoot -6.59982 -12.8383
ltoes 3.64891
940
root 3.23071 16.3765 24.7517 -180.246 157.032 174.165
lowerback 1.77699 3.54751 1.31591
upperback -0.974696 4.79214 1.18519
thorax -1.98735 2.38505 0.314565
lowerneck -5.39859 -8.30978 1.7945
upperneck 0.786082 -11.2713 3.59524
head 1.24989 -5.55034 0.509375
rclavicle -1.76608e-014 1.98785e-015
rhumerus -40.0618 20.9015 -89.0145
rradius 61.1084
rwrist 11.1534
rhand -21.6082 -21.0339
rfingers 7.12502
rthumb 4.78705 309.04
lclavicle -1.76608e-014 1.98785e-015
lhumerus -56.2825 -9.71362 88.3341
lradius 62.5683
lwrist 21.4892
lhand -5.66631 5.4885
lfingers 7.12502
lthumb 20.1531 34.4632
rfemur -11.6554 -16.4255 13.2253
rtibia 63.4494
rfoot 0.821572 2.8451
rtoes -32.701
lfemur -37.1101 -11.058 -9.59085
ltibia 39.8001
lfoot -7.50515 -12.8767
ltoes 3.86488
941
root 3.2791 16.3627 24.8556 -180.711 157.166 174.61
lowerback 2.22329 3.4947 0.729358
upperback -0.799313 4.70813 1.11311
thorax -2.09835 2.3494 0.54424
lowerneck -5.53416 -8.29764 1.81991
upperneck 1.1219 -11.2755 3.59927
head 1.37951 -5.5431 0.491134
rclavicle 3.0675e-014 2.14687e-014
rhumerus -40.4139 19.6003 -87.7296
rradius 60.3649
rwrist 11.8531
rhand -23.4114 -22.0008
rfingers 7.12502
rthumb 3.04582 308.041
lclavicle 3.0675e-014 2.14687e-014
lhumerus -56.1216 -9.99149 88.3308
lradius 62.689
lwrist 21.7843
lhand -5.58171 5.44449
lfingers 7.12502
lthumb 20.2344 34.4106
rfemur -14.7059 -15.8239 12.2268
rtibia 68.5211
rfoot 7.50035 6.18071
rtoes -28.2166
lfemur -36.2906 -10.7107 -10.4213
ltibia 40.5359
lfoot -8.26742 -13.0023
ltoes 4.24556
